<?xml version="1.0" encoding="UTF-8" standalone="no"?>
<svg
   xmlns:dc="http://purl.org/dc/elements/1.1/"
   xmlns:cc="http://creativecommons.org/ns#"
   xmlns:rdf="http://www.w3.org/1999/02/22-rdf-syntax-ns#"
   xmlns:svg="http://www.w3.org/2000/svg"
   xmlns="http://www.w3.org/2000/svg"
   xmlns:sodipodi="http://sodipodi.sourceforge.net/DTD/sodipodi-0.dtd"
   xmlns:inkscape="http://www.inkscape.org/namespaces/inkscape"
   width="2279.4102"
   height="754.83667"
   viewBox="0 0 175.74799 58.199719"
   version="1.1"
   id="svg889"
   sodipodi:docname="brasil-governo-federal-logo-vector.svg"
   inkscape:version="1.0.1 (3bc2e813f5, 2020-09-07)">
  <metadata
     id="metadata895">
    <rdf:RDF>
      <cc:Work
         rdf:about="">
        <dc:format>image/svg+xml</dc:format>
        <dc:type
           rdf:resource="http://purl.org/dc/dcmitype/StillImage" />
      </cc:Work>
    </rdf:RDF>
  </metadata>
  <defs
     id="defs893" />
  <sodipodi:namedview
     pagecolor="#ffffff"
     bordercolor="#666666"
     borderopacity="1"
     objecttolerance="10"
     gridtolerance="10"
     guidetolerance="10"
     inkscape:pageopacity="0"
     inkscape:pageshadow="2"
     inkscape:window-width="1360"
     inkscape:window-height="706"
     id="namedview891"
     showgrid="false"
     inkscape:zoom="0.2152"
     inkscape:cx="1139.7051"
     inkscape:cy="377.41833"
     inkscape:window-x="-8"
     inkscape:window-y="-8"
     inkscape:window-maximized="1"
     inkscape:current-layer="g887" />
  <g
     fill-rule="evenodd"
     clip-rule="evenodd"
     id="g887"
     transform="translate(-8.504,-423.22728)">
    <path
       d="m 131.627,460.97 h 7.604 v -2.205 c -0.76,0.381 -1.52,0.685 -2.434,1.064 -1.672,0.534 -3.27,0.837 -5.17,1.141 z"
       fill="#d25b86"
       id="path835"
       style="stroke-width:1" />
    <path
       fill="#cc2229"
       d="m 153.832,424.163 h 14.147 v 24.488 h 16.273 v 12.319 h -30.42 z"
       id="path837"
       style="stroke-width:1" />
    <path
       d="M 153.832,424.163 V 460.97 H 139.23 v -36.807 z"
       id="path839"
       style="stroke-width:1" />
    <path
       fill="#f2ca30"
       d="M 8.504,473.214 H 184.252 V 460.97 H 8.504 Z m 116.963,-22.967 c 2.129,-0.151 3.27,-0.608 3.346,-0.912 0.076,-0.229 -0.533,-0.457 -1.369,-0.685 -0.455,-0.152 -1.064,-0.304 -1.596,-0.456 -1.826,-0.38 -4.943,-0.685 -8.518,-2.054 a 14.067,14.067 0 0 1 -4.412,-2.585 l 1.979,5.551 c 1.52,0.381 3.27,0.761 5.094,0.913 2.206,0.228 4.03,0.305 5.476,0.228 z"
       id="path841"
       style="stroke-width:1" />
    <path
       d="m 129.041,434.278 c -1.445,0.076 -2.434,0.38 -2.51,0.685 -0.076,0.305 0.988,0.684 2.357,0.988 1.445,0.304 3.193,0.532 4.334,0.761 1.141,0.304 2.283,0.532 3.195,0.836 1.064,0.228 1.977,0.608 2.812,0.989 v -3.346 a 35.120001,35.120001 0 0 0 -4.791,-0.837 43.581001,43.581001 0 0 0 -5.397,-0.076 z"
       fill="#2f9751"
       id="path843"
       style="stroke-width:1" />
    <path
       d="m 24.854,445.837 h -3.65 v 7.528 h 3.574 c 2.51,0 5.171,-0.912 5.171,-3.802 10e-4,-3.118 -2.509,-3.726 -5.095,-3.726 z"
       fill="#f2ca30"
       id="path845"
       style="stroke-width:1" />
    <path
       d="M 58.468001,448.499 H 55.35 v 12.471 h 9.125001 c -0.685,-2.661 -0.836001,-8.365 -1.977001,-10.57 -0.835999,-1.749 -2.280999,-1.901 -4.029999,-1.901 z"
       fill="#cc2229"
       id="path847"
       style="stroke-width:1" />
    <path
       d="m 59.076001,432.376 h -3.878 v 7.909 H 58.925 c 2.89,0 5.703,-0.38 5.703,-4.106 -0.001,-3.346 -2.661999,-3.803 -5.551999,-3.803 z"
       fill="#1e71b8"
       id="path849"
       style="stroke-width:1" />
    <path
       d="m 29.569,434.734 c 0,-2.737 -2.206,-3.574 -4.639,-3.574 h -3.726 v 7.073 h 3.422 c 2.358,-10e-4 4.943,-0.762 4.943,-3.499 z"
       fill="#cc2229"
       id="path851"
       style="stroke-width:1" />
    <path
       fill="#91cef4"
       d="m 90.027999,452.986 -2.280997,7.984 H 104.324 l -2.357,-7.984 z M 167.979,424.163 v 24.488 h 16.273 v -24.488 z"
       id="path853"
       style="stroke-width:1" />
    <path
       d="m 143.262,436.483 c 0,0 -0.381,-0.152 -1.064,-0.38 -0.686,-0.229 -1.598,-0.532 -2.51,-0.761 a 30.544,30.544 0 0 0 -5.248,-0.989 43.998,43.998 0 0 0 -5.398,-0.076 c -1.445,0.076 -2.434,0.38 -2.51,0.685 -0.076,0.305 0.988,0.684 2.357,0.988 1.445,0.304 3.193,0.532 4.334,0.761 1.141,0.304 2.283,0.532 3.195,0.836 1.369,0.304 2.434,0.836 3.422,1.293 1.217,0.608 2.129,1.369 2.51,1.749 1.824,1.597 2.889,3.65 3.193,6.388 0.229,1.977 0,4.334 -0.836,6.235 -1.293,2.891 -3.803,5.172 -7.91,6.616 -1.748,0.608 -3.422,0.913 -5.551,1.217 -1.598,0.152 -3.879,0.305 -6.312,0.229 -2.281,0 -4.715,-0.229 -6.691,-0.456 -4.791,-0.532 -8.137,-1.445 -8.137,-1.445 v -12.015 c 0,0 1.367,0.608 3.498,1.369 a 31.501,31.501 0 0 0 6.387,1.293 c 2.207,0.228 4.031,0.304 5.477,0.228 2.129,-0.151 3.27,-0.608 3.346,-0.912 0.076,-0.229 -0.533,-0.457 -1.369,-0.685 -0.455,-0.152 -1.064,-0.304 -1.596,-0.456 -1.826,-0.38 -4.943,-0.685 -8.518,-2.054 -2.055,-0.76 -3.955,-2.053 -5.172,-3.346 -1.369,-1.597 -2.053,-3.499 -2.281,-5.02 -0.229,-1.749 -0.229,-3.727 0.305,-5.551 0.531,-1.597 1.367,-3.194 3.117,-4.715 1.748,-1.597 4.486,-2.737 7.377,-3.422 3.574,-0.837 7.604,-0.913 10.418,-0.837 2.205,0 4.562,0.229 6.617,0.457 a 66.520001,66.520001 0 0 1 5.551,0.913 v 11.863 z"
       id="path855"
       style="stroke-width:1" />
    <path
       d="m 137.102,425.075 c 2.738,0.304 4.791,0.685 4.791,0.685 v 8.746 c 0,0 -2.053,-0.685 -5.096,-1.217 -3.117,-0.532 -6.463,-0.532 -8.289,-0.38 -1.824,0.152 -3.27,0.761 -3.422,1.901 -0.152,1.445 1.445,1.977 3.043,2.357 1.596,0.38 4.029,0.761 6.691,1.369 1.369,0.304 2.814,0.76 4.107,1.445 1.293,0.608 2.434,1.445 3.193,2.282 0.457,0.608 0.912,1.216 1.293,1.901 0.381,0.836 0.607,1.901 0.76,2.89 0.152,1.141 0.076,2.434 -0.152,3.802 a 10.439,10.439 0 0 1 -2.053,4.107 c -1.141,1.292 -2.662,2.357 -4.639,3.117 -2.662,1.142 -6.084,1.825 -10.799,1.825 -1.826,0 -5.172,-0.076 -7.605,-0.38 -4.258,-0.456 -7.453,-1.217 -7.453,-1.217 v -8.897 c 0,0 2.967,1.292 7.682,1.9 4.639,0.686 7.072,0.305 8.594,0 1.217,-0.228 2.662,-0.988 2.51,-2.053 -0.076,-1.064 -1.141,-1.673 -3.193,-2.205 -2.131,-0.457 -6.236,-1.065 -8.975,-2.054 -3.117,-1.217 -6.844,-3.422 -6.996,-9.05 0,-2.434 0.607,-4.183 1.445,-5.476 1.141,-1.825 2.736,-2.813 4.334,-3.65 1.521,-0.76 3.498,-1.293 5.779,-1.673 2.51,-0.456 5.248,-0.608 8.061,-0.532 2.207,0.001 4.488,0.229 6.389,0.457 z"
       fill="#ffffff"
       id="path857"
       style="stroke-width:1" />
    <path
       d="m 113.299,427.509 c 1.748,-1.521 4.26,-2.662 7.072,-3.346 h -14.297 l 3.727,10.495 c 0,-0.837 0.152,-1.673 0.381,-2.434 0.531,-1.597 1.367,-3.193 3.117,-4.715 z"
       fill="#cc2229"
       id="path859"
       style="stroke-width:1" />
    <path
       d="m 78.773001,433.973 c 0,5.627 -3.499,8.518 -8.822,9.734 v 0.152 c 3.042,0.532 4.943,1.978 6.235999,3.955 0.457001,0.836 0.836001,1.825 1.141001,2.814 l 9.278001,-26.465 H 64.552001 c 8.822,0 14.221,2.738 14.221,9.81 z M 41.737,428.65 v -4.486 H 30.71 c 4.487,-10e-4 8.974,1.14 11.027,4.486 z m -12.7,32.32 h -0.076 12.776 v -3.878 c -2.585,3.422 -7.605,3.878 -12.7,3.878 z"
       fill="#d25b86"
       id="path861"
       style="stroke-width:1" />
    <path
       d="m 35.805,442.186 c -0.076,0 -0.152,0.077 -0.228,0.077 v 0.076 h 0.076 a 0.82600002,0.82600002 0 0 0 0.38,0.076 c 2.434,0.457 4.41,1.75 5.703,3.423 v -7.757 c -1.14,2.052 -3.193,3.345 -5.931,4.105 z"
       fill="#91cef4"
       id="path863"
       style="stroke-width:1" />
    <path
       fill="#ffffff"
       d="m 8.504,481.427 h 175.748 v -8.213 H 8.504 Z"
       id="path865"
       style="stroke-width:1" />
    <path
       d="m 112.994,479.45 c -0.684,0.152 -1.217,0.152 -1.672,0.152 -1.066,0 -2.434,-0.533 -2.434,-2.13 0,-1.673 1.141,-2.281 2.736,-2.281 0.229,0 0.838,0.076 1.293,0.229 l -0.152,0.912 c -0.303,-0.229 -0.76,-0.304 -0.988,-0.304 -0.912,0 -1.672,0.456 -1.672,1.444 0,0.837 0.531,1.293 1.367,1.293 0.152,0 0.305,0 0.457,-0.076 v -0.836 h -0.684 v -0.761 h 1.748 v 2.358 z m 2.586,-2.053 c 0,-0.685 0.305,-1.368 0.988,-1.368 0.686,0 0.912,0.684 0.912,1.368 0,0.761 -0.227,1.369 -0.912,1.369 -0.683,0 -0.988,-0.609 -0.988,-1.369 z m -1.141,0 c 0,1.369 0.686,2.206 2.129,2.206 1.369,0 2.131,-0.837 2.131,-2.206 0,-1.368 -0.762,-2.205 -2.131,-2.205 -1.443,0 -2.129,0.837 -2.129,2.205 z m 5.325,-2.129 h 1.216 l 0.913,3.346 0.988,-3.346 h 1.14 l -1.445,4.259 h -1.369 z m 5.474,0 h 2.967 v 0.836 h -1.826 v 0.913 h 1.75 v 0.76 h -1.75 v 0.989 h 1.9 v 0.761 h -3.041 z m 4.487,0 h 1.979 c 0.76,0 1.369,0.38 1.369,1.064 0,0.608 -0.229,0.989 -0.762,1.141 0.381,0.076 0.381,0.381 0.609,0.913 l 0.379,1.141 h -1.141 l -0.303,-0.761 c -0.229,-0.685 -0.381,-0.912 -0.762,-0.912 h -0.229 v 1.673 h -1.141 v -4.259 z m 1.14,1.825 h 0.305 c 0.305,0 0.836,-0.076 0.836,-0.532 0,-0.38 -0.455,-0.457 -0.836,-0.457 h -0.305 z m 3.727,-1.825 h 1.445 l 1.445,2.889 v -2.889 h 0.989 v 4.259 h -1.369 l -1.522,-2.891 0.076,2.891 h -1.064 z m 6.465,2.129 c 0,-0.685 0.305,-1.368 0.988,-1.368 0.686,0 0.988,0.684 0.988,1.368 0,0.761 -0.303,1.369 -0.988,1.369 -0.684,0 -0.988,-0.609 -0.988,-1.369 z m -1.141,0 c 0,1.369 0.76,2.206 2.129,2.206 1.369,0 2.129,-0.837 2.129,-2.206 0,-1.368 -0.684,-2.205 -2.129,-2.205 -1.369,0 -2.129,0.837 -2.129,2.205 z m 8.289,-2.129 h 2.815 v 0.836 h -1.674 v 0.913 h 1.597 v 0.837 h -1.597 v 1.673 h -1.141 z m 4.107,0 h 3.042 v 0.836 h -1.901 v 0.913 h 1.748 v 0.76 h -1.748 v 0.989 h 1.977 v 0.761 h -3.118 z m 5.704,0.836 h 0.381 c 0.836,0 1.367,0.457 1.367,1.293 0,0.913 -0.455,1.293 -1.367,1.293 h -0.381 z m -1.141,3.423 h 1.521 c 1.443,0 2.508,-0.532 2.508,-2.13 0,-1.673 -0.988,-2.129 -2.508,-2.129 h -1.521 z m 5.475,-4.259 h 2.966 v 0.836 h -1.826 v 0.913 h 1.75 v 0.76 h -1.75 v 0.989 h 1.903 v 0.761 h -3.043 z m 5.629,0.836 h 0.303 c 0.381,0 0.838,0.077 0.838,0.457 0,0.456 -0.533,0.532 -0.838,0.532 h -0.303 z m -1.143,3.423 h 1.143 v -1.673 h 0.227 c 0.381,0 0.533,0.228 0.762,0.912 l 0.303,0.761 h 1.14301 l -0.38101,-1.141 c -0.229,-0.532 -0.229,-0.837 -0.609,-0.913 0.533,-0.151 0.762,-0.532 0.762,-1.141 0,-0.685 -0.609,-1.064 -1.369,-1.064 h -1.979 v 4.259 z m 6.084,-4.259 h 1.445 l 1.598,4.259 h -1.217 l -0.305,-0.913 h -1.596 l -0.381,0.913 h -1.141 z m 0.762,0.913 h -0.076 l -0.533,1.673 h 1.064 z m 3.498,-0.913 h 1.14 v 3.422 h 1.748 v 0.837 h -2.888 z"
       id="path867"
       style="stroke-width:1" />
    <path
       d="m 21.204,445.837 h 3.65 c 2.585,0 5.095,0.608 5.095,3.726 0,2.89 -2.662,3.802 -5.171,3.802 h -3.574 z m -12.7,15.133 h 20.457 c 7.376,0 14.525,-0.988 14.525,-10.267 0,-3.649 -2.965999,-7.68 -7.909,-8.365 v -0.076 c 4.715,-1.293 7.301,-3.955 7.301,-9.05 0,-6.997 -6.008,-9.049 -12.168,-9.049 H 8.504 Z m 12.7,-29.811 h 3.726 c 2.434,0 4.639,0.837 4.639,3.574 0,2.738 -2.585,3.499 -4.943,3.499 h -3.422 z"
       fill="#1e71b8"
       id="path869"
       style="stroke-width:1" />
    <path
       d="m 55.198001,432.376 h 3.878 c 2.89,0 5.550999,0.457 5.550999,3.803 0,3.726 -2.813,4.106 -5.703,4.106 h -3.726999 v -7.909 z M 41.737,460.97 H 55.35 v -12.471 h 3.118001 c 1.749,0 3.194,0.152 4.030999,1.901 1.141,2.205 1.292001,7.909 1.977001,10.57 H 79.685 c -1.520999,-3.574 -1.369,-9.277 -3.498,-13.156 -1.292999,-1.977 -3.193999,-3.422 -6.235999,-3.955 v -0.152 c 5.323,-1.216 8.822,-4.106 8.822,-9.734 0,-7.073 -5.399,-9.81 -14.221,-9.81 H 41.737 Z"
       fill="#f2ca30"
       id="path871"
       style="stroke-width:1" />
    <path
       fill="#2f9751"
       d="m 73.677,460.97 h 14.070002 l 2.280997,-7.984 H 101.967 l 2.357,7.984 h 14.83 l -13.08,-36.807 H 86.606002 Z"
       id="path873"
       style="stroke-width:1" />
    <path
       d="m 18.238,468.043 c 0,1.825 -1.141,2.661 -2.89,2.661 -1.749,0 -2.89,-0.836 -2.89,-2.661 v -4.106 h 1.749 v 3.802 c 0,0.913 0.228,1.673 1.141,1.673 0.913,0 1.141,-0.76 1.141,-1.673 v -3.802 h 1.749 z m 6.16,-4.106 h 2.814 l 1.369,4.41 1.521,-4.41 h 2.661 v 6.616 h -1.749 l 0.076,-5.096 h -0.076 l -1.673,5.096 h -1.597 l -1.597,-5.096 h -0.076 l 0.076,5.096 h -1.749 z m 24.26,1.293 h 0.456001 c 0.607999,0 1.140999,0.151 1.140999,0.836 0,0.685 -0.532,0.912 -1.140999,0.912 H 48.658 Z m -1.749999,5.323 H 48.658 v -2.282 h 0.685 c 1.673,0 2.661001,-0.836 2.661001,-2.129 0,-1.521 -0.988001,-2.205 -2.966001,-2.205 h -2.129 v 6.616 z M 61.053,467.891 H 59.38 l 0.836001,-2.586 z m -4.409999,2.662 h 1.749 L 58.925,469.184 h 2.509 l 0.532001,1.369 h 1.901 l -2.585,-6.616 h -2.129 z M 70.483,462.188 h 1.749 l -1.216999,1.368 h -1.217 z m -0.76,1.749 h 1.749 v 6.616 h -1.749 z m 8.137001,5.018 c 0.456999,0.229 1.140999,0.456 1.824999,0.456 0.608001,0 1.141,-0.151 1.141,-0.684 0,-1.217 -3.194,-0.457 -3.194,-2.891 0,-1.597 1.597001,-1.977 2.890001,-1.977 0.684999,0 1.293,0.076 1.748999,0.229 l -0.151999,1.368 c -0.456,-0.228 -0.912001,-0.304 -1.444,-0.304 -0.457,0 -1.217,0 -1.217,0.608 0,1.064 3.194,0.38 3.194,2.737 0,1.749 -1.444001,2.205 -2.966001,2.205 -0.607999,0 -1.369,-0.076 -1.976999,-0.304 z M 98.469,465.23 h 0.686003 c 1.292997,0 2.052997,0.684 2.052997,2.053 0,1.293 -0.684,1.978 -2.052997,1.978 H 98.469 Z m -1.748998,5.323 h 2.433999 c 2.204999,0 3.878999,-0.837 3.878999,-3.347 0,-2.51 -1.598,-3.27 -3.878999,-3.27 H 96.720002 Z M 109.115,463.937 h 4.717 v 1.293 h -2.967 v 1.368 h 2.815 v 1.217 h -2.815 v 1.521 h 3.041 v 1.217 h -4.791 z m 19.697,1.293 h -1.597 v -1.293 h 5.019 v 1.293 h -1.595 v 5.323 h -1.827 z m 10.799,2.052 c 0,-1.141 0.457,-2.129 1.521,-2.129 1.064,0 1.521,0.988 1.521,2.129 0,1.064 -0.457,2.129 -1.521,2.129 -1.064,0 -1.521,-1.064 -1.521,-2.129 z m -1.824,0 c 0,2.129 1.141,3.422 3.346,3.422 2.129,0 3.346,-1.293 3.346,-3.422 0,-2.129 -1.141,-3.422 -3.346,-3.422 -2.205,0 -3.346,1.294 -3.346,3.422 z m 14.602,-2.052 h 0.684 c 1.293,0 2.053,0.684 2.053,2.053 0,1.293 -0.76,1.978 -2.053,1.978 h -0.684 z m -1.827,5.323 h 2.434 c 2.281,0 3.955,-0.837 3.955,-3.347 0,-2.51 -1.598,-3.27 -3.955,-3.27 h -2.434 z m 14.069,-3.271 c 0,-1.141 0.457,-2.129 1.521,-2.129 1.064,0 1.521,0.988 1.521,2.129 0,1.064 -0.457,2.129 -1.521,2.129 -1.064,0 -1.521,-1.064 -1.521,-2.129 z m -1.824,0 c 0,2.129 1.21701,3.422 3.346,3.422 2.205,0 3.346,-1.293 3.346,-3.422 0,-2.129 -1.141,-3.422 -3.346,-3.422 -2.20499,0 -3.346,1.294 -3.346,3.422 z m 13.004,1.673 a 4.0060001,4.0060001 0 0 0 1.824,0.456 c 0.533,0 1.066,-0.151 1.066,-0.684 0,-1.217 -3.119,-0.457 -3.119,-2.891 0,-1.597 1.521,-1.977 2.891,-1.977 0.607,0 1.217,0.076 1.672,0.229 l -0.076,1.368 c -0.455,-0.228 -0.988,-0.304 -1.52,-0.304 -0.457,0 -1.141,0 -1.141,0.608 0,1.064 3.117,0.38 3.117,2.737 0,1.749 -1.445,2.205 -2.89099,2.205 -0.68401,0 -1.44301,-0.076 -1.97701,-0.304 z"
       id="path875"
       style="stroke-width:1" />
    <path
       d="m 109.648,439.981 -0.305,-0.304 -0.303,-0.304 -0.076,-0.228 c 0,0 -0.305,-0.38 -0.457,-0.533 -0.152,-0.228 -0.533,-0.38 -0.988,-0.684 -0.381,-0.38 -0.457,-0.608 -0.838,-0.989 -0.379,-0.457 -1.064,-0.913 -1.064,-0.913 l -0.379,-0.38 -0.457,-0.228 -0.229,-0.456 -0.76,-0.609 -0.305,-0.304 c 0,0 -0.381,-0.228 -0.455,-0.38 -0.152,-0.076 -0.457,-0.304 -0.914,-0.608 -0.531,-0.38 -1.824,-1.064 -2.509997,-1.521 -0.683998,-0.457 -1.596004,-1.901 -1.824004,-1.977 -0.305001,-0.076 -0.457001,0 -0.533001,0.076 -0.152,0.076 -0.683998,0.228 -0.987998,0.457 -0.381001,0.152 -0.531999,0.076 -0.761,0.304 -0.228,0.228 -0.761001,0.608 -0.761001,0.608 0,0 -0.379999,0.532 -0.531999,0.685 -0.152,0.152 -0.455999,0 -0.531999,0.076 -0.151999,0.076 -0.151999,0 -0.455999,0.304 -0.305001,0.228 -1.141,0.836 -1.141,0.836 l -0.379999,0.076 -0.303999,0.152 -0.761001,0.608 h -0.303999 l -0.381002,0.304 c 0,0 -0.455999,0.152 -0.683998,0.304 -0.228,0.152 -0.761001,0.457 -0.913001,0.609 -0.229001,0.228 -0.608006,0.456 -1.216999,0.836 -0.608007,0.456 -2.054004,1.673 -2.129003,1.825 -0.152,0.228 -0.457,0.076 -0.457,0.076 0,0 -0.228001,0.229 -0.76,0.533 -0.533001,0.228 -0.608,0.76 -0.608,0.76 v 0.152 c 0,0 0.076,0.152 0.228,0.304 0.152,0.077 0.228999,0.152 0.304,0.229 0.076,0 0.38,0.076 0.38,0.076 l 0.227999,0.228 0.076,0.304 0.608001,0.685 0.684001,0.685 c 0,0 0.076,0.228 0.303999,0.456 0.152,0.152 0.609001,0.532 0.609001,0.532 l 0.152,0.076 0.228,0.152 0.303999,0.229 0.152,0.228 H 87.743 l 0.076,0.228 0.229002,0.228 c 0.076,0.076 0.303999,0.38 0.455999,0.608 0.076,0.152 0.227999,0.152 0.685001,0.38 0.457001,0.152 0.607998,0.076 0.607998,0.076 0,0 0.076,0.229 0.076,0.305 0.076,0.076 0.457001,0.38 0.607999,0.456 0.076,0.152 0.151999,0.152 0.229002,0.38 0.151999,0.228 0.761,0.836 0.761,0.836 l 0.150998,0.229 c 0,0 0.151999,0.228 0.685,0.988 a 4.595,4.595 0 0 0 1.672999,1.445 c 0.457002,0.304 0.685001,0.532 0.685001,0.532 0,0 0.379999,0.152 0.531999,0.228 0.227999,0.077 0.533001,0.381 0.608006,0.456 h 0.228 l 0.151999,-0.075 0.228,0.075 c 0,0 0.227999,0 0.379999,-0.075 l 0.226997,-0.229 c 0,0 0.762003,-0.608 0.838003,-0.685 0.152,0 0.454997,-0.304 0.454997,-0.304 L 98.694,449.105 c 0,0 0.152,-0.076 0.229002,-0.152 0.077,-0.076 0.911998,-0.608 0.987998,-0.608 0.076,-0.076 0.229,-0.076 0.229,-0.076 0,0 0.076,0 0.457,-0.229 0.379,-0.152 1.141,-0.38 1.141,-0.38 l 0.15,-0.152 0.381,-0.152 0.381,-0.304 c 0,0 0.455,-0.305 0.684,-0.609 0.305,-0.228 0.762,-0.532 0.838,-0.608 0.15,-0.076 0.531,-0.38 0.76,-0.533 0.229,-0.152 0.455,-0.532 0.455,-0.532 l 0.305,-0.228 1.141,-1.141 c 0.152,-0.076 0.609,-0.761 0.686,-0.913 0,-0.152 0.531,-0.457 0.684,-0.685 0.229,-0.152 0.457,-0.38 0.457,-0.38 l 0.455,-0.532 c 0,0 0.381,-0.304 0.533,-0.532 0.077,-0.15 0,-0.378 0,-0.378 z"
       fill="#f2ca30"
       id="path877"
       style="stroke-width:1" />
    <path
       d="m 91.396998,438.764 c 0.152,-0.076 0.531999,-0.532 0.531999,-0.532 0,0 0.380007,-0.076 0.608007,-0.228 0.227999,-0.076 1.368999,-0.608 1.520999,-0.608 h 0.381001 c 0.076,-0.076 0.455999,-0.076 0.531999,-0.076 0.152,0 0.531999,-0.076 0.761001,-0.076 0.227999,-0.076 0.683998,-0.076 0.987998,0 0.302997,0 0.759998,0.532 1.065,0.608 0.229001,0 0.530996,0.076 0.606996,0.152 0.152,0.076 0.381002,0.228 0.686003,0.304 0.229002,0.076 0.454997,0.304 0.606997,0.381 0.229001,0.152 0.533002,0.228 0.533002,0.228 0,0 0.229,0.152 0.381,0.229 0.15,0.152 0.836,0.76 0.836,0.76 l 0.229,0.076 c 0,0 0.303,0.304 0.607,0.532 0.076,0.076 0.152,0.076 0.229,0.152 v -0.608 c 0.076,-0.38 -0.076,-0.913 -0.152,-0.989 a 5.004,5.004 0 0 1 -0.305,-0.836 c -0.076,-0.228 -0.455,-0.989 -0.607,-1.217 -0.229,-0.304 -0.686,-0.608 -0.686,-0.608 0,0 -0.607,-0.684 -0.684,-0.836 -0.076,-0.076 -0.457002,-0.152 -0.457002,-0.152 0,0 -0.454997,-0.304 -0.683999,-0.532 -0.229002,-0.152 -0.305001,-0.076 -0.835998,-0.228 C 97.48,434.508 96.263,434.888 95.881999,434.964 95.502,435.04 95.122,435.04 94.970001,435.04 c -0.152,0 -0.685001,0.152 -0.685001,0.152 0,0 -0.379999,0.076 -0.607999,0.228 -0.227999,0.152 -0.531999,0.532 -0.761,0.685 -0.152,0.076 -0.228,0.076 -0.228,0.076 0,0 -0.455999,0.304 -0.683999,0.532 -0.303999,0.228 -0.531998,0.532 -0.761,0.836 -0.228,0.304 -0.455999,1.064 -0.531999,1.369 h 0.227999 c 0.229002,-0.077 0.305997,-0.077 0.457996,-0.154 z m 6.693005,-2.433 c 0.076,-0.152 0.226997,-0.076 0.378997,-0.076 0.076,-0.076 0.457002,-0.076 0.533001,-0.076 0.076,0 0.381002,-0.305 0.381002,-0.305 0.07399,-0.076 0.149995,-0.076 0.226997,-0.076 0.077,0 0.229002,0.608 0.229002,0.608 0,0 0.380998,0.152 0.456998,0.228 0.076,0.076 0.379,0.152 0.379,0.229 0.076,0.076 0,0.228 -0.074,0.304 -0.076,0.076 -0.30499,0.38 -0.38099,0.38 -0.076,0.076 0,0.38 0,0.457 0,0.152 -0.076,0.152 -0.152,0.152 0,0.076 -0.076,0 -0.152003,-0.076 -0.076,0 -0.152,-0.076 -0.305002,-0.228 A 0.568,0.568 0 0 0 99.384,437.624 c -0.076,-0.076 -0.304993,0.152 -0.456993,0.228 -0.076,0.076 -0.229002,0.076 -0.305002,0.076 -0.076,0 -0.076,-0.076 -0.151999,-0.152 v -0.228 c 0,0 0.076,-0.38 0.076,-0.456 0.076,-0.077 -0.303004,-0.38 -0.379004,-0.533 -0.07699,-0.076 -0.152995,-0.152 -0.07699,-0.228 z"
       fill="#1e71b8"
       id="path879"
       style="stroke-width:1" />
    <path
       d="m 100.143,440.362 c -0.305,-0.229 -0.609,-0.457 -0.759997,-0.532 -0.076,-0.076 -0.609001,-0.229 -0.914003,-0.304 -0.378997,-0.077 -0.835998,-0.229 -0.911998,-0.229 -0.152,-0.076 -0.457001,-0.152 -0.913,-0.456 -0.455999,-0.304 -0.989,-0.152 -1.217,-0.076 -0.303999,0 -0.455999,0.076 -0.835998,0.076 -0.303999,0 -0.456007,0 -0.989,0.076 -0.456007,0.076 -0.836006,0.457 -1.064006,0.685 -0.228994,0.229 -0.151999,0.152 -0.531999,0.229 -0.381001,0.076 -0.303999,0.076 -0.607998,0.152 -0.229002,0.076 -0.229002,0 -0.607999,0.152 -0.152,0.076 -0.229002,0.076 -0.305002,0.152 v 0.38 c 0.076,0.152 0.152,0.228 0.381002,0.457 0.303999,0.228 0.455999,0.988 0.607999,1.141 0.076,0.151 0.303999,0.304 0.607998,0.532 0.228,0.304 0.607999,0.988 0.835998,1.064 0.229002,0.076 0.457002,0.076 0.533002,0.152 0.076,0 0.913,0.456 1.064005,0.532 0.152,0 0.456994,0.152 0.456994,0.152 0,0 0.608006,0.076 1.445007,0.076 0.759998,0 1.063997,-0.152 1.292999,-0.228 0.228994,-0.152 0.380994,-0.076 0.380994,-0.076 0,0 0.152,0 0.455004,-0.152 0.381002,-0.076 0.229002,-0.076 0.457002,-0.152 h 0.835998 c 0.228998,-0.076 0.685998,-0.532 0.911998,-0.836 0.229,-0.38 0.305,-0.608 0.609,-0.989 0.229,-0.457 0.457,-0.608 0.531,-0.684 l 0.076,-0.076 c -0.227,-0.076 -0.531,-0.229 -0.836,-0.38 -0.381,-0.306 -0.76,-0.687 -0.988,-0.838 z m -7.453997,1.444 c -0.151999,0.076 -0.076,0.152 -0.151999,0.228 -0.076,0 -0.076,-0.076 -0.152,-0.076 -0.076,0 -0.152,0 -0.152,-0.152 l -0.152007,-0.152 c -0.076,-0.076 0.152007,-0.152 0.152007,-0.229 0.076,0 0.152,-0.152 0.228,-0.228 0.076,-0.076 0.151999,0.152 0.227999,0.228 0.076,0.076 0.152,0.076 0.228,0.152 0.07699,0.078 -0.07501,0.153 -0.228,0.229 z m 2.51,1.901 c -0.076,0.076 -0.076,0.152 -0.152,0.076 -0.076,0 -0.152,-0.152 -0.229002,-0.228 -0.152,0 -0.152,-0.228 -0.152,-0.228 0.076,-0.076 0.228,-0.076 0.228,-0.076 0,0 0.227999,-0.228 0.303999,-0.076 l 0.152,0.304 c 0,0 0.001,0.153 -0.150997,0.228 z m 0.151999,-2.205 c 0,0 -0.303999,-0.229 -0.379999,-0.304 -0.076,-0.152 -0.152,-0.076 -0.229002,-0.076 -0.076,0 -0.076,-0.152 -0.076,-0.229 l -0.227999,-0.076 c 0,0 -0.076,0.228 -0.303999,0.305 -0.229002,0.076 -0.304,-0.533 -0.304,-0.533 0,0 -0.457001,-0.152 -0.457001,-0.228 -0.076,-0.076 0.076,-0.152 0.379999,-0.229 0.303999,-0.152 0.228,-0.456 0.455999,-0.532 0.152,-0.076 0.303999,0.38 0.379999,0.38 0.076,0 0.457002,0.152 0.457002,0.152 0,0 0,0.076 -0.229002,0.229 -0.152,0.076 0.076,0.228 0.076,0.228 h 0.076 c 0.076,0.076 0.228,-0.152 0.304,-0.228 0.076,-0.076 0.151999,0.076 0.227999,0.076 0.076,0.076 0,0.456 0.076,0.532 0.152007,0 0.152007,0.304 0.152007,0.304 0,0 -0.077,0 -0.229001,0.076 a 9.1980002,9.1980002 0 0 1 -0.149002,0.153 z m 1.065,0.532 c 0,0 -0.076,0.152 -0.151999,0.229 -0.076,0.076 -0.152,0 -0.229002,-0.077 -0.152,-0.076 -0.228,0 -0.304,0 -0.151999,-0.076 -0.077,-0.152 -0.077,-0.228 0,0 0.152,0 0.228,-0.076 0.076,-0.076 0.076,-0.228 0.229002,-0.38 0.153002,-0.152 0.227999,0.152 0.303999,0.152 0,0 0.152,0 0.152,0.152 -0.075,0.152 -0.150998,0.228 -0.150998,0.228 z m 0.076,-1.672 c 0,0.076 -0.152,-0.076 -0.152,-0.076 -0.076,0 -0.151999,0.152 -0.303999,0.152 -0.152,-0.076 -0.152,-0.152 -0.303999,-0.305 -0.152,-0.228 -0.077,-0.228 -0.077,-0.304 0,-0.076 0.151999,-0.076 0.227999,-0.076 0.076,-0.076 0.152,-0.305 0.305002,-0.305 0.151999,-0.076 0.227999,0.229 0.227999,0.305 0,0.076 0.076,0.076 0.228,0.152 0.151999,0.076 -0.152,0.152 -0.152,0.457 z m 0.607999,0.684 c -0.076,-0.152 -0.150998,0.077 -0.302997,-0.152 -0.152,-0.228 0,-0.152 0.076,-0.228 0,-0.076 0.226997,-0.152 0.226997,-0.152 0,0 0.229002,-0.228 0.381001,-0.228 0.076,0 0.152,0.304 0.152,0.38 0.076,0.076 0.152,0.076 0.229002,0.228 0.076,0.229 -0.229002,0.229 -0.229002,0.229 0,0 -0.152,0.228 -0.305002,0.228 -0.076,0.075 -0.076,-0.077 -0.227999,-0.305 z m 1.292999,1.217 c -0.076,0.076 -0.302997,0.151 -0.302997,0.151 0,0 -0.076,0 -0.076,0.077 -0.076,0.152 -0.076,0.228 -0.076,0.228 0,0 -0.152,0 -0.229002,-0.152 -0.077,-0.152 -0.152,-0.076 -0.229002,-0.152 -0.076,-0.076 0,-0.151 0,-0.228 v -0.152 l 0.305002,-0.076 0.076,-0.228 c 0,0 0.076,-0.076 0.152,0 0.076,0.076 0.076,0.228 0.152,0.228 0,0 0.226997,0.076 0.226997,0.152 0.001,0 0.077,0.075 0.001,0.152 z m 2.054,-0.457 c 0,0.076 -0.152,0.304 -0.305,0.38 -0.076,0 -0.152001,0.38 -0.152001,0.457 H 99.838 c -0.076,0 -0.229002,-0.304 -0.229002,-0.304 0,0 -0.152,0.152 -0.302997,0.228 -0.076,0.076 -0.152,0 -0.152,-0.076 0,-0.077 -0.076,-0.305 -0.076,-0.38 v -0.229 c -0.076,0 -0.229002,-0.228 -0.229002,-0.228 v -0.152 c 0.076,-0.076 0.152,0 0.152,0 l 0.381002,-0.076 c 0,0 0.150002,-0.304 0.226997,-0.304 0,-0.077 0.076,-0.077 0.151999,-0.077 0.076,0 0.229002,0.457 0.229002,0.533 0,0 0.381001,0 0.457001,0.076 0.076,10e-4 0.076,0.076 0,0.152 z"
       fill="#1e71b8"
       id="path881"
       style="stroke-width:1" />
    <path
       d="m 102.348,441.274 c 0.152,-0.151 0.076,-0.38 0.152,-0.608 -0.076,-0.076 -0.152,-0.076 -0.229,-0.152 -0.305,-0.228 -0.607,-0.532 -0.607,-0.532 l -0.229,-0.076 c 0,0 -0.686,-0.608 -0.836,-0.76 -0.152,-0.076 -0.381,-0.229 -0.381,-0.229 0,0 -0.305003,-0.076 -0.533002,-0.228 -0.152,-0.077 -0.378997,-0.305 -0.606997,-0.381 -0.305001,-0.076 -0.533001,-0.228 -0.686003,-0.304 -0.076,-0.076 -0.378997,-0.152 -0.606996,-0.152 -0.305002,-0.076 -0.762003,-0.608 -1.065,-0.608 -0.304,-0.076 -0.761001,-0.076 -0.987998,0 -0.229002,0 -0.609001,0.076 -0.761001,0.076 -0.076,0 -0.457001,0 -0.531999,0.076 h -0.381001 c -0.152,0 -1.292005,0.532 -1.520999,0.608 -0.229002,0.152 -0.608007,0.228 -0.608007,0.228 0,0 -0.379999,0.457 -0.531999,0.532 -0.151999,0.076 -0.228994,0.076 -0.457001,0.152 h -0.227999 c 0,0.076 0,0.152 -0.076,0.229 -0.076,0.152 -0.152,0.685 -0.152,0.988 v 0.152 c 0.076,-0.076 0.152,-0.076 0.305002,-0.152 0.379999,-0.152 0.379999,-0.076 0.607998,-0.152 0.304,-0.076 0.228,-0.076 0.607999,-0.152 0.380007,-0.076 0.304007,0 0.532007,-0.229 0.227999,-0.228 0.607998,-0.608 1.063997,-0.685 0.533002,-0.076 0.685001,-0.076 0.989001,-0.076 0.379999,0 0.531998,-0.076 0.835998,-0.076 0.227999,-0.076 0.761,-0.228 1.216999,0.076 0.455999,0.304 0.759999,0.38 0.913001,0.456 0.076,0 0.533001,0.152 0.911998,0.229 0.305002,0.076 0.838003,0.228 0.914003,0.304 0.150002,0.076 0.454996,0.304 0.759999,0.532 0.229,0.152 0.607,0.532 0.988,0.836 0.305,0.152 0.609,0.304 0.836,0.38 l 0.076,-0.076 c 0,0 0.15301,-0.15 0.306,-0.226 z m -3.803,-4.182 c 0,0.076 -0.076,0.456 -0.076,0.456 v 0.228 c 0.076,0.076 0.076,0.152 0.152,0.152 0.076,0 0.229002,0 0.305002,-0.076 0.151999,-0.076 0.381001,-0.304 0.457001,-0.228 0,0 0.149995,0.076 0.226997,0.228 0.152,0.152 0.229002,0.228 0.305002,0.228 0.076,0.076 0.151998,0.152 0.151998,0.076 0.076,0 0.152,0 0.152,-0.152 0,-0.076 -0.076,-0.38 0,-0.457 0.076,0 0.305,-0.304 0.381,-0.38 0.074,-0.076 0.15,-0.228 0.074,-0.304 0,-0.077 -0.30299,-0.152 -0.37899,-0.229 -0.076,-0.077 -0.457005,-0.228 -0.457005,-0.228 0,0 -0.152,-0.608 -0.229002,-0.608 -0.07699,0 -0.152,0 -0.226997,0.076 0,0 -0.305002,0.305 -0.381002,0.305 -0.076,0 -0.457001,0 -0.533001,0.076 -0.152,0 -0.302997,-0.076 -0.378997,0.076 -0.076,0.076 0,0.152 0.076,0.228 0.077,0.152 0.455999,0.456 0.379999,0.533 z"
       fill="#ffffff"
       id="path883"
       style="stroke-width:1" />
    <path
       d="m 99.989999,441.578 c 0,-0.076 -0.151999,-0.533 -0.229002,-0.533 -0.07699,0 -0.151999,0 -0.151999,0.077 -0.076,0 -0.226997,0.304 -0.226997,0.304 l -0.381002,0.076 c 0,0 -0.076,-0.076 -0.152,0 v 0.152 c 0,0 0.152,0.228 0.229002,0.228 v 0.229 c 0,0.076 0.076,0.304 0.076,0.38 0,0.076 0.076,0.152 0.152,0.076 0.150002,-0.076 0.302997,-0.228 0.302997,-0.228 0,0 0.151999,0.304 0.229002,0.304 h 0.151999 c 0,-0.076 0.076,-0.457 0.152001,-0.457 0.152,-0.076 0.305,-0.304 0.305,-0.38 0.076,-0.076 0.076,-0.152 0,-0.152 -0.076,-0.076 -0.457001,-0.076 -0.457001,-0.076 z m -1.823996,0.38 c -0.076,0 -0.076,-0.152 -0.152,-0.228 -0.076,-0.076 -0.151999,0 -0.151999,0 l -0.076,0.228 -0.306004,0.076 v 0.152 c 0,0.077 -0.076,0.152 0,0.228 0.076,0.077 0.152,0 0.229002,0.152 0.077,0.152 0.229002,0.152 0.229002,0.152 0,0 0,-0.076 0.076,-0.228 0,-0.077 0.076,-0.077 0.076,-0.077 0,0 0.226997,-0.076 0.302997,-0.151 0.076,-0.077 0,-0.152 0,-0.152 0,-0.076 -0.226997,-0.152 -0.226998,-0.152 z m -2.585999,-0.988 c -0.076,-0.076 0,-0.457 -0.076,-0.532 -0.076,0 -0.151999,-0.152 -0.228007,-0.076 -0.076,0.076 -0.227999,0.304 -0.303999,0.228 h -0.076 c 0,0 -0.228,-0.152 -0.076,-0.228 0.229002,-0.152 0.229002,-0.229 0.229002,-0.229 0,0 -0.379999,-0.152 -0.457001,-0.152 -0.07699,0 -0.228,-0.456 -0.38,-0.38 -0.227999,0.076 -0.151999,0.38 -0.455999,0.532 -0.303999,0.076 -0.455999,0.152 -0.379999,0.229 0,0.076 0.457001,0.228 0.457001,0.228 0,0 0.076,0.608 0.304,0.533 0.227999,-0.077 0.303999,-0.305 0.303999,-0.305 l 0.228,0.076 c 0,0.076 0,0.229 0.076,0.229 0.076,0 0.151999,-0.077 0.229001,0.076 0.076,0.076 0.38,0.304 0.38,0.304 l 0.151999,-0.152 c 0.152,-0.076 0.229002,-0.076 0.229002,-0.076 0,0 -0.003,-0.305 -0.154999,-0.305 z m -2.891001,0.456 c -0.076,-0.076 -0.151999,-0.304 -0.227999,-0.228 -0.076,0.076 -0.152,0.228 -0.228,0.228 0,0.076 -0.228007,0.152 -0.152007,0.229 l 0.152007,0.152 c 0,0.152 0.076,0.152 0.152,0.152 0.076,0 0.076,0.076 0.152,0.076 0.076,-0.076 0,-0.152 0.151999,-0.228 0.152,-0.076 0.304,-0.152 0.228,-0.228 -0.07501,-0.077 -0.151005,-0.077 -0.228,-0.153 z m 2.51,1.749 c -0.076,-0.152 -0.304,0.076 -0.304,0.076 0,0 -0.151999,0 -0.227999,0.076 0,0 0,0.228 0.151999,0.228 0.076,0.076 0.152,0.228 0.228995,0.228 0.076,0.076 0.076,0 0.151999,-0.076 0.152008,-0.076 0.152008,-0.228 0.152008,-0.228 z m 1.216999,-1.52 c -0.076,0 -0.151999,-0.305 -0.303999,-0.152 -0.152,0.153 -0.152,0.304 -0.229002,0.38 -0.076,0.076 -0.227999,0.076 -0.227999,0.076 0,0.076 -0.076,0.152 0.077,0.228 0.076,0 0.150997,-0.076 0.303999,0 0.076,0.077 0.152,0.152 0.228994,0.077 0.076,-0.077 0.152008,-0.229 0.152008,-0.229 0,0 0.076,-0.076 0.151999,-0.228 -10e-4,-0.152 -0.153002,-0.152 -0.153002,-0.152 z m 1.217,-0.533 c 0,0 0.305002,0 0.229002,-0.229 -0.076,-0.152 -0.152,-0.152 -0.229002,-0.228 0,-0.076 -0.076,-0.38 -0.152,-0.38 -0.151999,0 -0.381001,0.228 -0.381001,0.228 0,0 -0.226997,0.076 -0.226997,0.152 -0.076,0.076 -0.229002,0 -0.076,0.228 0.151999,0.229 0.226997,0 0.302997,0.152 0.151999,0.228 0.151999,0.38 0.229002,0.304 0.150997,0.001 0.303999,-0.227 0.303999,-0.227 z m -0.989,-1.217 c -0.152,-0.076 -0.228,-0.076 -0.228,-0.152 0,-0.076 -0.076,-0.38 -0.227999,-0.305 -0.152,0 -0.229002,0.229 -0.305002,0.305 -0.076,0 -0.227999,0 -0.227999,0.076 0,0.076 -0.076,0.076 0.077,0.304 0.150997,0.152 0.150997,0.229 0.303999,0.305 0.152,0 0.228994,-0.152 0.303999,-0.152 0,0 0.152,0.152 0.152,0.076 0,-0.305 0.303999,-0.381 0.152,-0.457 z"
       fill="#ffffff"
       id="path885"
       style="stroke-width:1" />
  </g>
</svg>
